<svg width="535" height="304" viewBox="0 0 535 304" fill="none" xmlns="http://www.w3.org/2000/svg">
<path d="M20.5353 301.101C20.6609 298.904 -31.0501 232.945 29.1702 172.047C56.3554 144.556 102.338 159.451 95.0649 79.1426C88.7838 9.80411 197.259 -30.9391 264.672 30.9676C308.228 70.966 352.32 17.6063 421.421 47.8817C490.518 78.1572 445.017 160.445 473.372 168.199C529.226 183.473 556.965 250.685 512.435 300.354L20.5353 301.101Z" fill="#ECF6FF"/>
<path d="M530.557 303.76H3.7595C3.34104 303.76 3 303.419 3 303.001V302.266C3 301.848 3.34104 301.507 3.7595 301.507H530.555C530.973 301.507 531.314 301.848 531.314 302.266V303.001C531.314 303.417 530.973 303.76 530.557 303.76Z" fill="#396EB8"/>
<path d="M360.278 177.225C363.203 162.188 365.897 147.768 365.897 147.768C365.897 147.768 357.532 149.025 353.94 152.027C350.348 155.029 349.988 174.12 348.782 179.508C348.552 180.56 348.346 182.28 348.141 184.358C347.448 192.107 348.321 203.731 348.962 206.99C348.911 207.298 348.654 208.837 347.243 211.788C347.243 211.788 346.499 214.046 351.297 217.459C354.376 219.665 357.096 193.595 360.278 177.225Z" fill="#FFB27D"/>
<path d="M365.897 147.793C365.897 147.793 364.357 156.107 362.305 166.679C361.663 170.04 360.97 173.632 360.252 177.25C357.378 182.895 354.915 186.719 354.145 186C352.58 184.538 349.86 184.358 348.141 184.409C348.32 182.331 348.526 180.612 348.782 179.56C348.885 179.124 348.962 178.61 349.064 178.046C350.065 171.246 350.63 154.85 353.965 152.079C357.558 149.051 365.897 147.793 365.897 147.793Z" fill="#739AF0"/>
<path d="M362.33 166.653C361.689 170.014 360.996 173.607 360.277 177.225C357.403 182.87 354.94 186.693 354.17 185.974C352.605 184.512 349.885 184.332 348.166 184.383C348.346 182.305 348.551 180.586 348.807 179.534C348.91 179.098 348.987 178.584 349.09 178.02L357.711 157.21L362.33 166.653Z" fill="#4A75CB"/>
<path d="M377.829 147.562C377.88 144.663 377.854 141.199 377.444 138.248L365.846 140.147C365.846 140.147 365.846 143.688 365.897 147.614C365.897 147.614 365.589 151.257 370.079 151.796C374.57 152.335 377.957 150.385 377.829 147.562Z" fill="#FFB27D"/>
<path d="M365.846 140.865C365.846 140.865 368.566 146.459 371.696 146.459C374.826 146.459 377.752 141.199 377.752 141.199L365.846 140.865Z" fill="#F4924E"/>
<path d="M373.569 301.365C373.569 301.365 373.98 297.978 374.981 296.027C375.956 294.077 382.165 295.309 382.165 295.309C382.165 295.309 383.397 296.387 383.679 301.339H373.569V301.365Z" fill="#131F2D"/>
<path d="M352.375 301.339C353.837 300.441 353.016 293.795 353.016 293.795C353.016 293.795 346.216 288.355 345.267 292.512C344.318 296.669 338.801 298.542 335.645 299.055C333.464 299.415 332.797 300.621 332.591 301.313H352.375V301.339Z" fill="#131F2D"/>
<path d="M378.932 134.912C378.932 134.912 386.682 122.698 371.799 121.903C371.799 121.903 366.231 122.57 364.974 121.287C364.974 121.287 360.637 127.856 364.691 134.912C368.746 141.969 378.932 134.912 378.932 134.912Z" fill="#131F2D"/>
<path d="M366.205 141.301C367.334 142.199 370.644 143.072 371.593 143.175C371.593 143.175 376.494 142.071 377.392 141.532C378.778 140.686 378.675 138.992 378.752 136.657C378.829 133.86 379.111 131.679 378.803 130.088C378.444 128.164 377.212 127.086 373.8 126.778C367.539 126.239 364.947 127.805 364.819 129.909C364.793 130.473 364.768 131.012 364.742 131.525C364.511 138.043 365.024 140.352 366.205 141.301Z" fill="#FFB27D"/>
<path d="M366.488 251.791C366.205 253.33 366.026 254.562 366 255.46C365.358 267.802 355.608 296.027 353.863 296.695C351.169 297.721 346.909 295.54 344.677 294.847C343.753 294.565 343.138 293.615 343.343 292.692C348.167 270.471 349.963 238.473 350.604 219.537C350.938 209.992 352.58 203.397 352.58 203.397C352.58 203.397 376.392 197.059 376.52 205.091C376.623 212.198 368.592 240.064 366.488 251.791Z" fill="#1C468A"/>
<path d="M366.487 251.791L350.579 219.537C350.912 209.992 352.554 203.397 352.554 203.397C352.554 203.397 376.366 197.059 376.495 205.091C376.623 212.198 368.591 240.064 366.487 251.791Z" fill="#163560"/>
<path d="M361.176 205.116L373.749 296.31C373.749 296.31 379.266 297.644 383.576 296.566C383.576 296.566 387.271 248.07 386.963 236.344C386.656 224.618 389.606 204.962 386.296 202.807C382.986 200.626 361.176 205.116 361.176 205.116Z" fill="#1C468A"/>
<path d="M388.093 202.807C388.144 203.859 387.297 204.757 386.245 204.757L366.41 205.065L351.836 205.296C351.143 205.296 353.298 199.856 353.35 164.267C353.35 156.338 365.641 147.793 365.871 147.793C365.871 148.948 367.668 151.052 370.439 151.232C373.723 151.437 377.777 149.821 377.777 147.922C377.777 147.896 378.162 148.307 378.778 149.205C380.42 151.591 383.73 157.441 385.86 167.602C387.528 175.634 386.887 186.359 388.093 200.216C388.195 201.216 388.067 202.089 388.093 202.807Z" fill="#335599"/>
<path d="M387.374 204.86C387.374 204.86 384.731 206.04 379.804 207.067C376.135 207.836 371.208 208.504 365.153 208.529C355.505 208.581 351.861 205.27 351.861 205.27C351.168 205.27 353.324 199.831 353.375 164.241C353.375 156.312 365.666 147.768 365.897 147.768C365.897 147.768 365.589 158.339 368.771 161.444C368.771 161.444 373.261 157.98 379.086 148.127C380.728 150.513 383.756 157.416 385.886 167.577C386.322 169.655 386.604 171.888 386.784 174.325C387.348 181.33 387.22 189.901 388.118 200.19C388.195 201.191 388.067 202.089 388.092 202.781C388.144 203.859 388.426 204.86 387.374 204.86Z" fill="#739AF0"/>
<path d="M387.374 204.86C387.374 204.86 384.731 206.04 379.804 207.066C378.265 204.706 376.289 200.421 376.032 193.698C375.571 182.331 386.373 167.679 386.373 167.679L386.784 174.351C387.348 181.356 387.22 189.926 388.118 200.215C388.195 201.216 388.067 202.114 388.092 202.807C388.144 203.859 388.426 204.86 387.374 204.86Z" fill="#4A75CB"/>
<path d="M377.995 166.337L359.574 176.973L374.161 202.238L392.582 191.602L377.995 166.337Z" fill="#364154"/>
<path d="M389.478 151.591C387.22 149.897 381.934 148.666 379.317 148.153C378.393 147.973 377.803 147.87 377.803 147.87C378.085 149.128 378.676 151.103 379.497 153.464C382.858 163.369 389.478 180.175 388.144 180.535C387.066 180.817 385.655 181.074 384.141 181.305C378.316 182.151 370.49 182.536 369.669 182.562C369.592 182.511 366.821 179.893 365.718 179.893C364.614 179.893 361.458 181.048 361.125 181.946C360.791 182.844 360.663 184.435 361.586 184.794C362.485 185.153 366.231 186.026 367.206 186.128C367.334 186.128 367.488 186.128 367.668 186.128C374.647 188.181 380.626 189.182 385.244 189.669C391.685 190.337 395.457 189.952 395.457 189.952C400.153 179.919 392.532 153.9 389.478 151.591Z" fill="#FFB27D"/>
<path d="M395.482 189.977C395.482 189.977 391.71 190.337 385.27 189.695C385.629 187.95 385.963 184.512 384.141 181.356C385.68 181.125 387.066 180.868 388.144 180.586C389.478 180.227 382.832 163.394 379.497 153.515C379.24 150.308 379.086 148.178 379.086 148.178L379.317 148.204C381.934 148.717 387.22 149.923 389.478 151.642C392.531 153.9 400.152 179.919 395.482 189.977Z" fill="#739AF0"/>
<path d="M368.797 161.47C368.797 161.47 377.778 157.518 377.906 157.21C378.034 156.902 377.47 154.49 376.828 153.798C376.828 153.798 381.139 154.208 381.396 153.669C381.652 153.13 381.857 148.743 381.857 148.743C381.857 148.743 380.061 146.895 377.855 146.716C377.855 146.716 375.904 151.565 375.186 153.002C373.287 156.8 368.797 161.47 368.797 161.47Z" fill="#4A75CB"/>
<path d="M366.667 153.643C366.667 153.643 367.257 158.262 368.797 161.47C368.797 161.47 364.101 158.211 363.716 157.133C363.306 156.055 364.845 154.003 364.845 154.003C364.845 154.003 362.048 153.926 361.971 153.002C361.894 152.078 362.844 148.409 362.844 148.409C362.844 148.409 365.256 146.664 365.923 146.715L366.667 153.643Z" fill="#4A75CB"/>
<path d="M381.857 128.113L361.946 128.318C361.946 128.318 361.663 122.314 365.102 118.49C365.256 118.311 365.435 118.131 365.615 117.977C366.359 117.259 367.257 116.668 368.335 116.207C372.312 114.539 375.622 116.078 377.675 117.644C377.88 117.798 378.06 117.951 378.239 118.105C379.368 119.055 379.984 119.902 379.984 119.902C379.984 119.902 381.909 122.57 381.857 128.113Z" fill="#00A3FE"/>
<path d="M376.238 128.189C376.187 127.368 375.828 120.492 378.24 118.157C378.06 118.003 378.111 118.028 377.906 117.874C375.314 120.569 375.109 127.343 375.135 128.189L368.771 128.266C368.592 123.391 365.897 118.516 365.564 117.977C365.384 118.157 365.359 118.182 365.205 118.362C365.666 119.183 367.437 123.879 367.591 128.266L361.895 128.318C361.895 128.318 367.206 129.678 371.209 129.652C375.212 129.601 381.832 128.112 381.832 128.112L376.238 128.189Z" fill="#016EB9"/>
<path d="M403.154 184.537H406.413C407.927 183.845 416.112 180.304 423.964 180.278C429.635 180.252 436.101 184.486 436.486 184.537C437.461 184.666 433.202 184.691 433.202 184.691C433.202 184.691 426.812 181.869 423.939 181.792C421.193 181.741 415.112 183.716 412.674 184.563H430.969C432.509 184.563 433.74 185.82 433.74 187.334V208.195C433.74 209.735 432.483 210.967 430.969 210.967H403.154C401.615 210.967 400.383 209.709 400.383 208.195V187.334C400.358 185.795 401.615 184.537 403.154 184.537Z" fill="#00A3FE"/>
<path d="M412.187 184.537H440.001C441.541 184.537 442.773 185.795 442.773 187.309V208.17C442.773 209.709 441.515 210.941 440.001 210.941H412.187C410.647 210.941 409.416 209.684 409.416 208.17V187.309C409.416 185.795 410.647 184.537 412.187 184.537Z" fill="#016EB9"/>
<path d="M268.909 57.5068H105.639V172.656H268.909V57.5068Z" fill="#38B4F2"/>
<path d="M263.219 63.4795H111.272V166.655H263.219V63.4795Z" fill="#E3F2FF"/>
<path d="M231.658 296.184H228.063L205.673 288.457C196.133 285.173 189.736 276.172 189.736 266.095V170.873C189.736 169.542 188.717 168.382 187.359 168.325C185.915 168.269 184.754 169.401 184.754 170.816V266.095C184.754 276.172 178.357 285.173 168.818 288.457L146.428 296.184H142.352C141.021 296.184 139.861 297.203 139.804 298.562C139.748 300.005 140.88 301.166 142.295 301.166H146.852C146.852 301.166 146.853 301.166 146.881 301.166C146.881 301.166 146.881 301.166 146.909 301.166H156.901C158.232 301.166 159.364 300.175 159.449 298.845C159.505 298.194 159.307 297.599 158.939 297.146L175.385 291.457C183.113 288.796 191.491 288.796 199.191 291.457L215.268 297.005C214.872 297.458 214.617 298.081 214.646 298.76C214.702 300.119 215.863 301.166 217.222 301.166H227.695C227.695 301.166 227.695 301.166 227.723 301.166C227.723 301.166 227.723 301.166 227.751 301.166H231.799C233.215 301.166 234.347 299.977 234.29 298.562C234.149 297.203 232.988 296.184 231.658 296.184Z" fill="#3A70BC"/>
<path d="M271.032 57.5068H268.88V172.656H271.032V57.5068Z" fill="#35488B"/>
<path d="M189.737 172.628H184.755V177.242H189.737V172.628Z" fill="#35488B"/>
<path d="M248.726 154.88H241.933V141.095H248.726V154.88ZM242.131 154.682H248.528V141.293H242.131V154.682Z" fill="#838383"/>
<path d="M243.999 154.88H151.495C151.438 154.88 151.41 154.823 151.41 154.795C151.41 154.767 151.466 154.71 151.495 154.71H243.801V128.215H236.13V97.5315H228.657V114.147H222.458V120.261H211.447V116.723H206.748V102.627H194.152V78.7363L184.386 75.5094V91.3608H181.924V79.4722L172.158 83.1803V97.1919H162.93V86.9734H153.476V97.1919H151.664V103.136H143.965V123.375C143.965 123.432 143.909 123.46 143.88 123.46C143.852 123.46 143.795 123.403 143.795 123.375V102.91H151.495V96.9654H153.306V86.7752H163.157V96.9654H171.988V83.0105L182.15 79.1609V91.1344H184.217V75.198L194.378 78.5664V102.4H206.975V116.497H211.673V120.035H222.288V113.949H228.487V97.3334H236.356V127.989H244.027V154.88H243.999Z" fill="#838383"/>
<path d="M192.822 82.416H185.915V79.7552H192.822V82.416ZM186.085 82.2179H192.624V79.9534H186.085V82.2179Z" fill="#838383"/>
<path d="M192.822 87.0582H185.915V84.3975H192.822V87.0582ZM186.085 86.8601H192.624V84.5956H186.085V86.8601Z" fill="#838383"/>
<path d="M192.822 91.2191H185.915V88.5583H192.822V91.2191ZM186.085 91.021H192.624V88.7565H186.085V91.021Z" fill="#838383"/>
<path d="M236.329 112.505H229.903V108.514H236.329V112.505ZM230.101 112.335H236.131V108.741H230.101V112.335Z" fill="#838383"/>
<path d="M236.329 124.196H228.403V120.176H236.329V124.196ZM228.601 123.998H236.159V120.403H228.601V123.998Z" fill="#838383"/>
<path d="M236.329 129.914H228.403V125.923H236.329V129.914ZM228.601 129.744H236.159V126.121H228.601V129.744Z" fill="#838383"/>
<path d="M236.47 135.943H228.544V131.952H236.47V135.943ZM228.714 135.745H236.272V132.15H228.714V135.745Z" fill="#838383"/>
<path d="M236.47 141.831H228.544V137.839H236.47V141.831ZM228.714 141.632H236.272V138.009H228.714V141.632Z" fill="#838383"/>
<path d="M236.47 147.832H228.544V143.84H236.47V147.832ZM228.714 147.633H236.272V144.038H228.714V147.633Z" fill="#838383"/>
<path d="M180.764 91.2191H173.489V88.5583H180.764V91.2191ZM173.687 91.021H180.566V88.7565H173.687V91.021Z" fill="#838383"/>
<path d="M180.764 87.0865H173.489V84.4258H180.764V87.0865ZM173.687 86.8884H180.566V84.6239H173.687V86.8884Z" fill="#838383"/>
<path d="M192.992 95.2387H173.489V92.5779H192.992V95.2387ZM173.687 95.0405H192.794V92.776H173.687V95.0405Z" fill="#838383"/>
<path d="M192.992 98.9467H173.489V96.2859H192.992V98.9467ZM173.687 98.7485H192.794V96.484H173.687V98.7485Z" fill="#838383"/>
<path d="M192.992 102.542H173.489V99.9658H192.992V102.542ZM173.687 102.344H192.794V100.164H173.687V102.344Z" fill="#838383"/>
<path d="M236.329 118.45H228.403V114.458H236.329V118.45ZM228.601 118.252H236.159V114.657H228.601V118.252Z" fill="#838383"/>
<path d="M204.994 107.297H203.097V104.721H204.994V107.297ZM203.295 107.099H204.796V104.919H203.295V107.099Z" fill="#838383"/>
<path d="M201.823 107.297H199.927V104.721H201.823V107.297ZM200.125 107.099H201.625V104.919H200.125V107.099Z" fill="#838383"/>
<path d="M198.738 107.297H196.841V104.721H198.738V107.297ZM197.039 107.099H198.54V104.919H197.039V107.099Z" fill="#838383"/>
<path d="M195.822 107.297H193.926V104.721H195.822V107.297ZM194.124 107.099H195.624V104.919H194.124V107.099Z" fill="#838383"/>
<path d="M192.822 107.297H190.925V104.721H192.822V107.297ZM191.123 107.099H192.624V104.919H191.123V107.099Z" fill="#838383"/>
<path d="M189.794 107.297H187.897V104.721H189.794V107.297ZM188.123 107.099H189.624V104.919H188.123V107.099Z" fill="#838383"/>
<path d="M186.651 107.297H184.754V104.721H186.651V107.297ZM184.953 107.099H186.453V104.919H184.953V107.099Z" fill="#838383"/>
<path d="M183.566 107.297H181.669V104.721H183.566V107.297ZM181.868 107.099H183.368V104.919H181.868V107.099Z" fill="#838383"/>
<path d="M180.622 107.297H178.725V104.721H180.622V107.297ZM178.923 107.099H180.423V104.919H178.923V107.099Z" fill="#838383"/>
<path d="M177.649 107.297H175.753V104.721H177.649V107.297ZM175.951 107.099H177.451V104.919H175.951V107.099Z" fill="#838383"/>
<path d="M174.536 107.297H172.64V104.721H174.536V107.297ZM172.838 107.099H174.338V104.919H172.838V107.099Z" fill="#838383"/>
<path d="M171.366 107.297H169.469V104.721H171.366V107.297ZM169.667 107.099H171.168V104.919H169.667V107.099Z" fill="#838383"/>
<path d="M168.28 107.297H166.384V104.721H168.28V107.297ZM166.582 107.099H168.082V104.919H166.582V107.099Z" fill="#838383"/>
<path d="M165.365 107.297H163.469V104.721H165.365V107.297ZM163.667 107.099H165.167V104.919H163.667V107.099Z" fill="#838383"/>
<path d="M162.365 107.297H160.468V104.721H162.365V107.297ZM160.666 107.099H162.167V104.919H160.666V107.099Z" fill="#838383"/>
<path d="M159.335 107.297H157.439V104.721H159.335V107.297ZM157.665 107.099H159.166V104.919H157.665V107.099Z" fill="#838383"/>
<path d="M156.193 107.297H154.297V104.721H156.193V107.297ZM154.495 107.099H155.995V104.919H154.495V107.099Z" fill="#838383"/>
<path d="M153.108 107.297H151.211V104.721H153.108V107.297ZM151.41 107.099H152.91V104.919H151.41V107.099Z" fill="#838383"/>
<path d="M150.165 107.297H148.268V104.721H150.165V107.297ZM148.466 107.099H149.966V104.919H148.466V107.099Z" fill="#838383"/>
<path d="M147.192 107.297H145.296V104.721H147.192V107.297ZM145.494 107.099H146.994V104.919H145.494V107.099Z" fill="#838383"/>
<path d="M204.994 111.515H203.097V108.939H204.994V111.515ZM203.295 111.317H204.796V109.137H203.295V111.317Z" fill="#838383"/>
<path d="M201.823 111.515H199.927V108.939H201.823V111.515ZM200.125 111.317H201.625V109.137H200.125V111.317Z" fill="#838383"/>
<path d="M198.738 111.515H196.841V108.939H198.738V111.515ZM197.039 111.317H198.54V109.137H197.039V111.317Z" fill="#838383"/>
<path d="M195.822 111.515H193.926V108.939H195.822V111.515ZM194.124 111.317H195.624V109.137H194.124V111.317Z" fill="#838383"/>
<path d="M192.822 111.515H190.925V108.939H192.822V111.515ZM191.123 111.317H192.624V109.137H191.123V111.317Z" fill="#838383"/>
<path d="M189.794 111.515H187.897V108.939H189.794V111.515ZM188.123 111.317H189.624V109.137H188.123V111.317Z" fill="#838383"/>
<path d="M186.651 111.515H184.754V108.939H186.651V111.515ZM184.953 111.317H186.453V109.137H184.953V111.317Z" fill="#838383"/>
<path d="M183.566 111.515H181.669V108.939H183.566V111.515ZM181.868 111.317H183.368V109.137H181.868V111.317Z" fill="#838383"/>
<path d="M180.622 111.515H178.725V108.939H180.622V111.515ZM178.923 111.317H180.423V109.137H178.923V111.317Z" fill="#838383"/>
<path d="M177.649 111.515H175.753V108.939H177.649V111.515ZM175.951 111.317H177.451V109.137H175.951V111.317Z" fill="#838383"/>
<path d="M174.536 111.515H172.64V108.939H174.536V111.515ZM172.838 111.317H174.338V109.137H172.838V111.317Z" fill="#838383"/>
<path d="M171.366 111.515H169.469V108.939H171.366V111.515ZM169.667 111.317H171.168V109.137H169.667V111.317Z" fill="#838383"/>
<path d="M168.28 111.515H166.384V108.939H168.28V111.515ZM166.582 111.317H168.082V109.137H166.582V111.317Z" fill="#838383"/>
<path d="M165.365 111.515H163.469V108.939H165.365V111.515ZM163.667 111.317H165.167V109.137H163.667V111.317Z" fill="#838383"/>
<path d="M162.365 111.515H160.468V108.939H162.365V111.515ZM160.666 111.317H162.167V109.137H160.666V111.317Z" fill="#838383"/>
<path d="M159.335 111.515H157.439V108.939H159.335V111.515ZM157.665 111.317H159.166V109.137H157.665V111.317Z" fill="#838383"/>
<path d="M156.193 111.515H154.297V108.939H156.193V111.515ZM154.495 111.317H155.995V109.137H154.495V111.317Z" fill="#838383"/>
<path d="M153.108 111.515H151.211V108.939H153.108V111.515ZM151.41 111.317H152.91V109.137H151.41V111.317Z" fill="#838383"/>
<path d="M150.165 111.515H148.268V108.939H150.165V111.515ZM148.466 111.317H149.966V109.137H148.466V111.317Z" fill="#838383"/>
<path d="M147.192 111.515H145.296V108.939H147.192V111.515ZM145.494 111.317H146.994V109.137H145.494V111.317Z" fill="#838383"/>
<path d="M204.994 115.648H203.097V113.072H204.994V115.648ZM203.295 115.449H204.796V113.27H203.295V115.449Z" fill="#838383"/>
<path d="M201.823 115.648H199.927V113.072H201.823V115.648ZM200.125 115.449H201.625V113.27H200.125V115.449Z" fill="#838383"/>
<path d="M198.738 115.648H196.841V113.072H198.738V115.648ZM197.039 115.449H198.54V113.27H197.039V115.449Z" fill="#838383"/>
<path d="M195.822 115.648H193.926V113.072H195.822V115.648ZM194.124 115.449H195.624V113.27H194.124V115.449Z" fill="#838383"/>
<path d="M192.822 115.648H190.925V113.072H192.822V115.648ZM191.123 115.449H192.624V113.27H191.123V115.449Z" fill="#838383"/>
<path d="M189.794 115.648H187.897V113.072H189.794V115.648ZM188.123 115.449H189.624V113.27H188.123V115.449Z" fill="#838383"/>
<path d="M186.651 115.648H184.754V113.072H186.651V115.648ZM184.953 115.449H186.453V113.27H184.953V115.449Z" fill="#838383"/>
<path d="M183.566 115.648H181.669V113.072H183.566V115.648ZM181.868 115.449H183.368V113.27H181.868V115.449Z" fill="#838383"/>
<path d="M180.622 115.648H178.725V113.072H180.622V115.648ZM178.923 115.449H180.423V113.27H178.923V115.449Z" fill="#838383"/>
<path d="M177.649 115.648H175.753V113.072H177.649V115.648ZM175.951 115.449H177.451V113.27H175.951V115.449Z" fill="#838383"/>
<path d="M174.536 115.648H172.64V113.072H174.536V115.648ZM172.838 115.449H174.338V113.27H172.838V115.449Z" fill="#838383"/>
<path d="M171.366 115.648H169.469V113.072H171.366V115.648ZM169.667 115.449H171.168V113.27H169.667V115.449Z" fill="#838383"/>
<path d="M168.28 115.648H166.384V113.072H168.28V115.648ZM166.582 115.449H168.082V113.27H166.582V115.449Z" fill="#838383"/>
<path d="M165.365 115.648H163.469V113.072H165.365V115.648ZM163.667 115.449H165.167V113.27H163.667V115.449Z" fill="#838383"/>
<path d="M162.365 115.648H160.468V113.072H162.365V115.648ZM160.666 115.449H162.167V113.27H160.666V115.449Z" fill="#838383"/>
<path d="M159.335 115.648H157.439V113.072H159.335V115.648ZM157.665 115.449H159.166V113.27H157.665V115.449Z" fill="#838383"/>
<path d="M156.193 115.648H154.297V113.072H156.193V115.648ZM154.495 115.449H155.995V113.27H154.495V115.449Z" fill="#838383"/>
<path d="M153.108 115.648H151.211V113.072H153.108V115.648ZM151.41 115.449H152.91V113.27H151.41V115.449Z" fill="#838383"/>
<path d="M150.165 115.648H148.268V113.072H150.165V115.648ZM148.466 115.449H149.966V113.27H148.466V115.449Z" fill="#838383"/>
<path d="M147.192 115.648H145.296V113.072H147.192V115.648ZM145.494 115.449H146.994V113.27H145.494V115.449Z" fill="#838383"/>
<path d="M204.994 120.035H203.097V117.459H204.994V120.035ZM203.295 119.837H204.796V117.657H203.295V119.837Z" fill="#838383"/>
<path d="M201.823 120.035H199.927V117.459H201.823V120.035ZM200.125 119.837H201.625V117.657H200.125V119.837Z" fill="#838383"/>
<path d="M198.738 120.035H196.841V117.459H198.738V120.035ZM197.039 119.837H198.54V117.657H197.039V119.837Z" fill="#838383"/>
<path d="M195.822 120.035H193.926V117.459H195.822V120.035ZM194.124 119.837H195.624V117.657H194.124V119.837Z" fill="#838383"/>
<path d="M192.822 120.035H190.925V117.459H192.822V120.035ZM191.123 119.837H192.624V117.657H191.123V119.837Z" fill="#838383"/>
<path d="M189.794 120.035H187.897V117.459H189.794V120.035ZM188.123 119.837H189.624V117.657H188.123V119.837Z" fill="#838383"/>
<path d="M186.651 120.035H184.754V117.459H186.651V120.035ZM184.953 119.837H186.453V117.657H184.953V119.837Z" fill="#838383"/>
<path d="M183.566 120.035H181.669V117.459H183.566V120.035ZM181.868 119.837H183.368V117.657H181.868V119.837Z" fill="#838383"/>
<path d="M180.622 120.035H178.725V117.459H180.622V120.035ZM178.923 119.837H180.423V117.657H178.923V119.837Z" fill="#838383"/>
<path d="M177.649 120.035H175.753V117.459H177.649V120.035ZM175.951 119.837H177.451V117.657H175.951V119.837Z" fill="#838383"/>
<path d="M174.536 120.035H172.64V117.459H174.536V120.035ZM172.838 119.837H174.338V117.657H172.838V119.837Z" fill="#838383"/>
<path d="M171.366 120.035H169.469V117.459H171.366V120.035ZM169.667 119.837H171.168V117.657H169.667V119.837Z" fill="#838383"/>
<path d="M168.28 120.035H166.384V117.459H168.28V120.035ZM166.582 119.837H168.082V117.657H166.582V119.837Z" fill="#838383"/>
<path d="M165.365 120.035H163.469V117.459H165.365V120.035ZM163.667 119.837H165.167V117.657H163.667V119.837Z" fill="#838383"/>
<path d="M162.365 120.035H160.468V117.459H162.365V120.035ZM160.666 119.837H162.167V117.657H160.666V119.837Z" fill="#838383"/>
<path d="M159.335 120.035H157.439V117.459H159.335V120.035ZM157.665 119.837H159.166V117.657H157.665V119.837Z" fill="#838383"/>
<path d="M156.193 120.035H154.297V117.459H156.193V120.035ZM154.495 119.837H155.995V117.657H154.495V119.837Z" fill="#838383"/>
<path d="M153.108 120.035H151.211V117.459H153.108V120.035ZM151.41 119.837H152.91V117.657H151.41V119.837Z" fill="#838383"/>
<path d="M150.165 120.035H148.268V117.459H150.165V120.035ZM148.466 119.837H149.966V117.657H148.466V119.837Z" fill="#838383"/>
<path d="M147.192 120.035H145.296V117.459H147.192V120.035ZM145.494 119.837H146.994V117.657H145.494V119.837Z" fill="#838383"/>
<path d="M204.994 124.253H203.097V121.677H204.994V124.253ZM203.295 124.054H204.796V121.875H203.295V124.054Z" fill="#838383"/>
<path d="M201.823 124.253H199.927V121.677H201.823V124.253ZM200.125 124.054H201.625V121.875H200.125V124.054Z" fill="#838383"/>
<path d="M198.738 124.253H196.841V121.677H198.738V124.253ZM197.039 124.054H198.54V121.875H197.039V124.054Z" fill="#838383"/>
<path d="M195.822 124.253H193.926V121.677H195.822V124.253ZM194.124 124.054H195.624V121.875H194.124V124.054Z" fill="#838383"/>
<path d="M192.822 124.253H190.925V121.677H192.822V124.253ZM191.123 124.054H192.624V121.875H191.123V124.054Z" fill="#838383"/>
<path d="M189.794 124.253H187.897V121.677H189.794V124.253ZM188.123 124.054H189.624V121.875H188.123V124.054Z" fill="#838383"/>
<path d="M186.651 124.253H184.754V121.677H186.651V124.253ZM184.953 124.054H186.453V121.875H184.953V124.054Z" fill="#838383"/>
<path d="M183.566 124.253H181.669V121.677H183.566V124.253ZM181.868 124.054H183.368V121.875H181.868V124.054Z" fill="#838383"/>
<path d="M180.622 124.253H178.725V121.677H180.622V124.253ZM178.923 124.054H180.423V121.875H178.923V124.054Z" fill="#838383"/>
<path d="M177.649 124.253H175.753V121.677H177.649V124.253ZM175.951 124.054H177.451V121.875H175.951V124.054Z" fill="#838383"/>
<path d="M174.536 124.253H172.64V121.677H174.536V124.253ZM172.838 124.054H174.338V121.875H172.838V124.054Z" fill="#838383"/>
<path d="M171.366 124.253H169.469V121.677H171.366V124.253ZM169.667 124.054H171.168V121.875H169.667V124.054Z" fill="#838383"/>
<path d="M168.28 124.253H166.384V121.677H168.28V124.253ZM166.582 124.054H168.082V121.875H166.582V124.054Z" fill="#838383"/>
<path d="M165.365 124.253H163.469V121.677H165.365V124.253ZM163.667 124.054H165.167V121.875H163.667V124.054Z" fill="#838383"/>
<path d="M162.365 124.253H160.468V121.677H162.365V124.253ZM160.666 124.054H162.167V121.875H160.666V124.054Z" fill="#838383"/>
<path d="M159.335 124.253H157.439V121.677H159.335V124.253ZM157.665 124.054H159.166V121.875H157.665V124.054Z" fill="#838383"/>
<path d="M156.193 124.253H154.297V121.677H156.193V124.253ZM154.495 124.054H155.995V121.875H154.495V124.054Z" fill="#838383"/>
<path d="M150.165 124.253H148.41C148.325 124.253 148.268 124.196 148.268 124.111V121.677H150.165V124.253ZM148.466 124.054H149.966V121.875H148.466V124.054Z" fill="#838383"/>
<path d="M153.108 124.253H151.211V121.677H153.108V124.253ZM151.41 124.054H152.91V121.875H151.41V124.054Z" fill="#838383"/>
<path d="M147.192 124.026L145.296 123.715V121.677H147.192V124.026ZM145.494 123.545L146.994 123.8V121.846H145.494V123.545Z" fill="#838383"/>
<path d="M204.994 128.385H203.097V125.809H204.994V128.385ZM203.295 128.187H204.796V126.007H203.295V128.187Z" fill="#838383"/>
<path d="M201.823 128.385H199.927V125.809H201.823V128.385ZM200.125 128.187H201.625V126.007H200.125V128.187Z" fill="#838383"/>
<path d="M198.738 128.385H196.841V125.809H198.738V128.385ZM197.039 128.187H198.54V126.007H197.039V128.187Z" fill="#838383"/>
<path d="M195.822 128.385H193.926V125.809H195.822V128.385ZM194.124 128.187H195.624V126.007H194.124V128.187Z" fill="#838383"/>
<path d="M192.822 128.385H190.925V125.809H192.822V128.385ZM191.123 128.187H192.624V126.007H191.123V128.187Z" fill="#838383"/>
<path d="M189.794 128.385H187.897V125.809H189.794V128.385ZM188.123 128.187H189.624V126.007H188.123V128.187Z" fill="#838383"/>
<path d="M186.651 128.385H184.754V125.809H186.651V128.385ZM184.953 128.187H186.453V126.007H184.953V128.187Z" fill="#838383"/>
<path d="M183.566 128.385H181.669V125.809H183.566V128.385ZM181.868 128.187H183.368V126.007H181.868V128.187Z" fill="#838383"/>
<path d="M180.622 128.385H178.725V125.809H180.622V128.385ZM178.923 128.187H180.423V126.007H178.923V128.187Z" fill="#838383"/>
<path d="M177.649 128.385H175.753V125.809H177.649V128.385ZM175.951 128.187H177.451V126.007H175.951V128.187Z" fill="#838383"/>
<path d="M174.536 128.385H172.64V125.809H174.536V128.385ZM172.838 128.187H174.338V126.007H172.838V128.187Z" fill="#838383"/>
<path d="M171.366 128.385H169.469V125.809H171.366V128.385ZM169.667 128.187H171.168V126.007H169.667V128.187Z" fill="#838383"/>
<path d="M168.28 128.385H166.384V125.809H168.28V128.385ZM166.582 128.187H168.082V126.007H166.582V128.187Z" fill="#838383"/>
<path d="M165.365 128.385H163.469V125.809H165.365V128.385ZM163.667 128.187H165.167V126.007H163.667V128.187Z" fill="#838383"/>
<path d="M162.365 128.385H160.468V125.809H162.365V128.385ZM160.666 128.187H162.167V126.007H160.666V128.187Z" fill="#838383"/>
<path d="M159.335 128.385H157.439V125.809H159.335V128.385ZM157.665 128.187H159.166V126.007H157.665V128.187Z" fill="#838383"/>
<path d="M156.193 128.385H154.297V125.809H156.193V128.385ZM154.495 128.187H155.995V126.007H154.495V128.187Z" fill="#838383"/>
<path d="M131.341 136.792H127.378V121.111H131.341V136.792ZM127.576 136.594H131.143V121.28H127.576V136.594Z" fill="#838383"/>
<path d="M222.458 120.233H216.514V113.921H219.288V108.967H219.684V113.921H222.43V120.233H222.458ZM216.712 120.035H222.26V114.119H219.515V109.165V114.119H216.741V120.035H216.712Z" fill="#838383"/>
<path d="M225.572 114.147V97.3334H226.988V95.6917H227.384V97.3334H234.291V95.6917H234.687V97.3334H236.3V101.325H230.073V102.995H236.3V106.986H228.629V114.147H225.572ZM225.77 97.5315V113.949H228.459V106.788H236.13V103.193H229.903V101.155H236.13V97.5315H234.517V95.8898V97.5315H227.214V95.8898V97.5315H225.77Z" fill="#838383"/>
<path d="M152.797 146.445C152.74 146.445 152.712 146.388 152.712 146.36V124.989L131.228 121.309C131.171 121.309 131.143 121.252 131.143 121.196C131.143 121.139 131.199 121.111 131.256 121.111L152.882 124.819V146.331C152.882 146.388 152.853 146.445 152.797 146.445Z" fill="#838383"/>
<path d="M152.882 154.88H125.793V136.594H152.882V154.88ZM125.991 154.682H152.684V136.792H125.991V154.682Z" fill="#838383"/>
<path d="M152.882 131.867H125.793V125.781H152.882V131.867ZM125.991 131.669H152.684V125.979H125.991V131.669Z" fill="#838383"/>
<path d="M151.042 143.529H149.457V141.406H151.042V143.529ZM149.683 143.331H150.872V141.576H149.683V143.331Z" fill="#838383"/>
<path d="M148.466 143.529H146.881V141.406H148.466V143.529ZM147.079 143.331H148.268V141.576H147.079V143.331Z" fill="#838383"/>
<path d="M145.947 143.529H144.362V141.406H145.947V143.529ZM144.56 143.331H145.749V141.576H144.56V143.331Z" fill="#838383"/>
<path d="M143.541 143.529H141.956V141.406H143.541V143.529ZM142.182 143.331H143.371V141.576H142.182V143.331Z" fill="#838383"/>
<path d="M141.107 143.529H139.521V141.406H141.107V143.529ZM139.72 143.331H140.908V141.576H139.72V143.331Z" fill="#838383"/>
<path d="M138.644 143.529H137.059V141.406H138.644V143.529ZM137.257 143.331H138.446V141.576H137.257V143.331Z" fill="#838383"/>
<path d="M136.069 143.529H134.483V141.406H136.069V143.529ZM134.682 143.331H135.87V141.576H134.682V143.331Z" fill="#838383"/>
<path d="M133.549 143.529H131.964V141.406H133.549V143.529ZM132.162 143.331H133.351V141.576H132.162V143.331Z" fill="#838383"/>
<path d="M131.143 143.529H129.558V141.406H131.143V143.529ZM129.756 143.331H130.945V141.576H129.756V143.331Z" fill="#838383"/>
<path d="M128.709 143.529H127.124V141.406H128.709V143.529ZM127.322 143.331H128.511V141.576H127.322V143.331Z" fill="#838383"/>
<path d="M151.042 146.982H149.457V144.831H151.042V146.982ZM149.683 146.784H150.872V145.029H149.683V146.784Z" fill="#838383"/>
<path d="M148.466 146.982H146.881V144.831H148.466V146.982ZM147.079 146.784H148.268V145.029H147.079V146.784Z" fill="#838383"/>
<path d="M145.947 146.982H144.362V144.831H145.947V146.982ZM144.56 146.784H145.749V145.029H144.56V146.784Z" fill="#838383"/>
<path d="M143.541 146.982H141.956V144.831H143.541V146.982ZM142.182 146.784H143.371V145.029H142.182V146.784Z" fill="#838383"/>
<path d="M141.107 146.982H139.521V144.831H141.107V146.982ZM139.72 146.784H140.908V145.029H139.72V146.784Z" fill="#838383"/>
<path d="M138.644 146.982H137.059V144.831H138.644V146.982ZM137.257 146.784H138.446V145.029H137.257V146.784Z" fill="#838383"/>
<path d="M136.069 146.982H134.483V144.831H136.069V146.982ZM134.682 146.784H135.87V145.029H134.682V146.784Z" fill="#838383"/>
<path d="M133.549 146.982H131.964V144.831H133.549V146.982ZM132.162 146.784H133.351V145.029H132.162V146.784Z" fill="#838383"/>
<path d="M131.143 146.982H129.558V144.831H131.143V146.982ZM129.756 146.784H130.945V145.029H129.756V146.784Z" fill="#838383"/>
<path d="M128.709 146.982H127.124V144.831H128.709V146.982ZM127.322 146.784H128.511V145.029H127.322V146.784Z" fill="#838383"/>
<path d="M151.042 135.264H149.457V133.112H151.042V135.264ZM149.683 135.065H150.872V133.31H149.683V135.065Z" fill="#838383"/>
<path d="M148.466 135.264H146.881V133.112H148.466V135.264ZM147.079 135.065H148.268V133.31H147.079V135.065Z" fill="#838383"/>
<path d="M145.947 135.264H144.362V133.112H145.947V135.264ZM144.56 135.065H145.749V133.31H144.56V135.065Z" fill="#838383"/>
<path d="M143.541 135.264H141.956V133.112H143.541V135.264ZM142.182 135.065H143.371V133.31H142.182V135.065Z" fill="#838383"/>
<path d="M141.107 135.264H139.521V133.112H141.107V135.264ZM139.72 135.065H140.908V133.31H139.72V135.065Z" fill="#838383"/>
<path d="M138.644 135.264H137.059V133.112H138.644V135.264ZM137.257 135.065H138.446V133.31H137.257V135.065Z" fill="#838383"/>
<path d="M136.069 135.264H134.483V133.112H136.069V135.264ZM134.682 135.065H135.87V133.31H134.682V135.065Z" fill="#838383"/>
<path d="M133.549 135.264H131.964V133.112H133.549V135.264ZM132.162 135.065H133.351V133.31H132.162V135.065Z" fill="#838383"/>
<path d="M151.042 140.047H149.457V137.896H151.042V140.047ZM149.683 139.849H150.872V138.094H149.683V139.849Z" fill="#838383"/>
<path d="M148.466 140.047H146.881V137.896H148.466V140.047ZM147.079 139.849H148.268V138.094H147.079V139.849Z" fill="#838383"/>
<path d="M145.947 140.047H144.362V137.896H145.947V140.047ZM144.56 139.849H145.749V138.094H144.56V139.849Z" fill="#838383"/>
<path d="M143.541 140.047H141.956V137.896H143.541V140.047ZM142.182 139.849H143.371V138.094H142.182V139.849Z" fill="#838383"/>
<path d="M141.107 140.047H139.521V137.896H141.107V140.047ZM139.72 139.849H140.908V138.094H139.72V139.849Z" fill="#838383"/>
<path d="M138.644 140.047H137.059V137.896H138.644V140.047ZM137.257 139.849H138.446V138.094H137.257V139.849Z" fill="#838383"/>
<path d="M136.069 140.047H134.483V137.896H136.069V140.047ZM134.682 139.849H135.87V138.094H134.682V139.849Z" fill="#838383"/>
<path d="M133.549 140.047H131.964V137.896H133.549V140.047ZM132.162 139.849H133.351V138.094H132.162V139.849Z" fill="#838383"/>
<path d="M131.143 140.047H129.558V137.896H131.143V140.047ZM129.756 139.849H130.945V138.094H129.756V139.849Z" fill="#838383"/>
<path d="M128.709 140.047H127.124V137.896H128.709V140.047ZM127.322 139.849H128.511V138.094H127.322V139.849Z" fill="#838383"/>
<path d="M151.042 150.351H149.457V148.199H151.042V150.351ZM149.683 150.153H150.872V148.398H149.683V150.153Z" fill="#838383"/>
<path d="M148.466 150.351H146.881V148.199H148.466V150.351ZM147.079 150.153H148.268V148.398H147.079V150.153Z" fill="#838383"/>
<path d="M145.947 150.351H144.362V148.199H145.947V150.351ZM144.56 150.153H145.749V148.398H144.56V150.153Z" fill="#838383"/>
<path d="M143.541 150.351H141.956V148.199H143.541V150.351ZM142.182 150.153H143.371V148.398H142.182V150.153Z" fill="#838383"/>
<path d="M141.107 150.351H139.521V148.199H141.107V150.351ZM139.72 150.153H140.908V148.398H139.72V150.153Z" fill="#838383"/>
<path d="M138.644 150.351H137.059V148.199H138.644V150.351ZM137.257 150.153H138.446V148.398H137.257V150.153Z" fill="#838383"/>
<path d="M136.069 150.351H134.483V148.199H136.069V150.351ZM134.682 150.153H135.87V148.398H134.682V150.153Z" fill="#838383"/>
<path d="M133.549 150.351H131.964V148.199H133.549V150.351ZM132.162 150.153H133.351V148.398H132.162V150.153Z" fill="#838383"/>
<path d="M131.143 150.351H129.558V148.199H131.143V150.351ZM129.756 150.153H130.945V148.398H129.756V150.153Z" fill="#838383"/>
<path d="M128.709 150.351H127.124V148.199H128.709V150.351ZM127.322 150.153H128.511V148.398H127.322V150.153Z" fill="#838383"/>
<path d="M133.181 121.62L132.586 121.507V117.063H133.181V121.62ZM132.785 121.365L132.983 121.394V117.261H132.785V121.365Z" fill="#838383"/>
<path d="M150.844 129.63H149.485V127.423H150.844V129.63ZM149.683 129.461H150.645V127.649H149.683V129.461Z" fill="#838383"/>
<path d="M139.324 129.63H137.965V127.423H139.324V129.63ZM138.163 129.461H139.125V127.649H138.163V129.461Z" fill="#838383"/>
<path d="M130.152 129.63H128.793V127.423H130.152V129.63ZM128.992 129.461H129.954V127.649H128.992V129.461Z" fill="#838383"/>
<path d="M224.496 154.766H185.604V131.923H224.496V154.766ZM185.802 154.568H224.298V132.121H185.802V154.568Z" fill="#838383"/>
<path d="M189.368 137.613H187.104V134.273H189.368V137.613ZM187.33 137.415H189.199V134.471H187.33V137.415Z" fill="#838383"/>
<path d="M193.02 137.613H190.755V134.273H193.02V137.613ZM190.954 137.415H192.822V134.471H190.954V137.415Z" fill="#838383"/>
<path d="M196.672 137.613H194.407V134.273H196.672V137.613ZM194.634 137.415H196.502V134.471H194.634V137.415Z" fill="#838383"/>
<path d="M200.323 137.613H198.059V134.273H200.323V137.613ZM198.257 137.415H200.125V134.471H198.257V137.415Z" fill="#838383"/>
<path d="M204.059 137.613H201.795V134.273H204.059V137.613ZM201.993 137.415H203.861V134.471H201.993V137.415Z" fill="#838383"/>
<path d="M207.711 137.613H205.446V134.273H207.711V137.613ZM205.644 137.415H207.513V134.471H205.644V137.415Z" fill="#838383"/>
<path d="M211.363 137.613H209.098V134.273H211.363V137.613ZM209.296 137.415H211.164V134.471H209.296V137.415Z" fill="#838383"/>
<path d="M215.014 137.613H212.75V134.273H215.014V137.613ZM212.948 137.415H214.816V134.471H212.948V137.415Z" fill="#838383"/>
<path d="M218.835 137.613H216.571V134.273H218.835V137.613ZM216.769 137.415H218.637V134.471H216.769V137.415Z" fill="#838383"/>
<path d="M222.458 137.613H220.194V134.273H222.458V137.613ZM220.392 137.415H222.26V134.471H220.392V137.415Z" fill="#838383"/>
<path d="M189.368 142.255H187.104V138.915H189.368V142.255ZM187.33 142.057H189.199V139.113H187.33V142.057Z" fill="#838383"/>
<path d="M193.02 142.255H190.755V138.915H193.02V142.255ZM190.954 142.057H192.822V139.113H190.954V142.057Z" fill="#838383"/>
<path d="M196.672 142.255H194.407V138.915H196.672V142.255ZM194.634 142.057H196.502V139.113H194.634V142.057Z" fill="#838383"/>
<path d="M200.323 142.255H198.059V138.915H200.323V142.255ZM198.257 142.057H200.125V139.113H198.257V142.057Z" fill="#838383"/>
<path d="M204.059 142.255H201.795V138.915H204.059V142.255ZM201.993 142.057H203.861V139.113H201.993V142.057Z" fill="#838383"/>
<path d="M207.711 142.255H205.446V138.915H207.711V142.255ZM205.644 142.057H207.513V139.113H205.644V142.057Z" fill="#838383"/>
<path d="M211.363 142.255H209.098V138.915H211.363V142.255ZM209.296 142.057H211.164V139.113H209.296V142.057Z" fill="#838383"/>
<path d="M215.014 142.255H212.75V138.915H215.014V142.255ZM212.948 142.057H214.816V139.113H212.948V142.057Z" fill="#838383"/>
<path d="M218.835 142.255H216.571V138.915H218.835V142.255ZM216.769 142.057H218.637V139.113H216.769V142.057Z" fill="#838383"/>
<path d="M222.458 142.255H220.194V138.915H222.458V142.255ZM220.392 142.057H222.26V139.113H220.392V142.057Z" fill="#838383"/>
<path d="M189.368 147.265H187.104V143.925H189.368V147.265ZM187.33 147.067H189.199V144.123H187.33V147.067Z" fill="#838383"/>
<path d="M193.02 147.265H190.755V143.925H193.02V147.265ZM190.954 147.067H192.822V144.123H190.954V147.067Z" fill="#838383"/>
<path d="M196.672 147.265H194.407V143.925H196.672V147.265ZM194.634 147.067H196.502V144.123H194.634V147.067Z" fill="#838383"/>
<path d="M200.323 147.265H198.059V143.925H200.323V147.265ZM198.257 147.067H200.125V144.123H198.257V147.067Z" fill="#838383"/>
<path d="M204.059 147.265H201.795V143.925H204.059V147.265ZM201.993 147.067H203.861V144.123H201.993V147.067Z" fill="#838383"/>
<path d="M207.711 147.265H205.446V143.925H207.711V147.265ZM205.644 147.067H207.513V144.123H205.644V147.067Z" fill="#838383"/>
<path d="M211.363 147.265H209.098V143.925H211.363V147.265ZM209.296 147.067H211.164V144.123H209.296V147.067Z" fill="#838383"/>
<path d="M215.014 147.265H212.75V143.925H215.014V147.265ZM212.948 147.067H214.816V144.123H212.948V147.067Z" fill="#838383"/>
<path d="M218.835 147.265H216.571V143.925H218.835V147.265ZM216.769 147.067H218.637V144.123H216.769V147.067Z" fill="#838383"/>
<path d="M222.458 147.265H220.194V143.925H222.458V147.265ZM220.392 147.067H222.26V144.123H220.392V147.067Z" fill="#838383"/>
<path d="M189.368 151.936H187.104V148.596H189.368V151.936ZM187.33 151.738H189.199V148.766H187.33V151.738Z" fill="#838383"/>
<path d="M193.02 151.936H190.755V148.596H193.02V151.936ZM190.954 151.738H192.822V148.766H190.954V151.738Z" fill="#838383"/>
<path d="M196.672 151.936H194.407V148.596H196.672V151.936ZM194.634 151.738H196.502V148.766H194.634V151.738Z" fill="#838383"/>
<path d="M200.323 151.936H198.059V148.596H200.323V151.936ZM198.257 151.738H200.125V148.766H198.257V151.738Z" fill="#838383"/>
<path d="M204.059 151.936H201.795V148.596H204.059V151.936ZM201.993 151.738H203.861V148.766H201.993V151.738Z" fill="#838383"/>
<path d="M207.711 151.936H205.446V148.596H207.711V151.936ZM205.644 151.738H207.513V148.766H205.644V151.738Z" fill="#838383"/>
<path d="M211.363 151.936H209.098V148.596H211.363V151.936ZM209.296 151.738H211.164V148.766H209.296V151.738Z" fill="#838383"/>
<path d="M215.014 151.936H212.75V148.596H215.014V151.936ZM212.948 151.738H214.816V148.766H212.948V151.738Z" fill="#838383"/>
<path d="M218.835 151.936H216.571V148.596H218.835V151.936ZM216.769 151.738H218.637V148.766H216.769V151.738Z" fill="#838383"/>
<path d="M222.458 151.936H220.194V148.596H222.458V151.936ZM220.392 151.738H222.26V148.766H220.392V151.738Z" fill="#838383"/>
<path d="M219.231 132.122H210.966V129.036L219.231 125.866V132.122ZM211.164 131.952H219.033V126.177L211.164 129.206V131.952Z" fill="#838383"/>
<path d="M171.366 154.88H152.684V134.556L171.366 141.01V154.88ZM152.882 154.682H171.168V141.151L152.882 134.811V154.682Z" fill="#838383"/>
<path d="M170.885 142.34H153.193V141.519H170.885V142.34ZM153.363 142.17H170.687V141.746H153.363V142.17Z" fill="#838383"/>
<path d="M170.885 144.35H153.193V143.529H170.885V144.35ZM153.363 144.152H170.687V143.727H153.363V144.152Z" fill="#838383"/>
<path d="M170.885 146.36H153.193V145.539H170.885V146.36ZM153.363 146.162H170.687V145.737H153.363V146.162Z" fill="#838383"/>
<path d="M170.885 148.341H153.193V147.52H170.885V148.341ZM153.363 148.143H170.687V147.718H153.363V148.143Z" fill="#838383"/>
<path d="M170.885 150.351H153.193V149.53H170.885V150.351ZM153.363 150.153H170.687V149.728H153.363V150.153Z" fill="#838383"/>
<path d="M170.885 152.332H153.193V151.511H170.885V152.332ZM153.363 152.134H170.687V151.709H153.363V152.134Z" fill="#838383"/>
<path d="M220.789 132.122H219.034V125.923H220.789V132.122ZM219.232 131.952H220.591V126.121H219.232V131.952Z" fill="#838383"/>
<path d="M217.533 131.216H214.193V128.951H217.533V131.216ZM214.391 131.018H217.335V129.15H214.391V131.018Z" fill="#838383"/>
<path d="M155.599 96.8804H154.326V87.5959H155.599V96.8804ZM154.552 96.6822H155.43V87.7941H154.552V96.6822Z" fill="#838383"/>
<path d="M157.751 96.8804H156.477V87.5959H157.751V96.8804ZM156.675 96.6822H157.553V87.7941H156.675V96.6822Z" fill="#838383"/>
<path d="M159.845 96.8804H158.571V87.5959H159.845V96.8804ZM158.769 96.6822H159.647V87.7941H158.769V96.6822Z" fill="#838383"/>
<path d="M162.025 96.8804H160.751V87.5959H162.025V96.8804ZM160.95 96.6822H161.827V87.7941H160.95V96.6822Z" fill="#838383"/>
<path d="M451.496 178.585L445.491 179.662C444.901 179.765 444.465 180.227 444.542 180.663L466.019 301.262C466.096 301.698 466.66 301.98 467.251 301.878L473.255 300.8C473.845 300.697 474.281 300.236 474.204 299.799L452.727 179.2C452.625 178.764 452.086 178.482 451.496 178.585Z" fill="#FF7955"/>
<path d="M451.496 178.585L445.491 179.662C444.901 179.765 444.465 180.227 444.542 180.663L445.209 184.409L453.369 182.947L452.702 179.2C452.625 178.764 452.086 178.482 451.496 178.585Z" fill="#364154"/>
<path d="M466.019 301.262C466.096 301.698 466.66 301.981 467.25 301.878L473.255 300.8C473.845 300.698 474.281 300.236 474.204 299.799L473.64 296.566L465.48 298.029L466.019 301.262Z" fill="#364154"/>
<path d="M449.957 187.027C449.623 187.078 449.366 187.334 449.418 187.591L468.303 293.744C468.354 294 468.662 294.154 468.996 294.103C469.329 294.052 469.586 293.795 469.535 293.539L450.649 187.386C450.598 187.104 450.29 186.95 449.957 187.027Z" fill="#131F2D"/>
<path d="M145.494 297.175L149.825 297.118C149.825 297.118 143.286 289.872 141.276 286.192L135.757 276.002L128.539 277.785L137.71 290.777L145.494 297.175Z" fill="#FFB27D"/>
<path d="M104.761 99.0318C103.091 98.0977 101.11 97.9845 99.6945 98.0694C100.062 97.7014 100.77 97.5599 100.77 97.5599C99.8926 97.4184 97.9678 98.2959 97.9678 98.2959C85.9377 93.6537 88.8532 111.175 89.108 115.28C89.3627 119.384 80.2482 120.941 73.9925 124.196C62.0473 130.395 61 138.66 61 138.66C61.0849 138.717 61.1981 138.774 61.2831 138.859C61.8775 137.868 63.0947 135.971 64.1137 135.688C64.0854 135.773 62.8965 138.292 62.4719 139.708C66.0102 142.397 72.5772 148.341 77.1911 152.53C77.1628 151.71 77.1911 150.549 77.5025 149.926L78.0686 153.351C80.5312 155.616 82.2296 157.201 82.2296 157.201C81.9182 153.861 97.2885 136.311 105.299 131.046C107.252 128.187 107.932 123.092 107.988 122.696C107.649 126.715 106.969 128.98 106.346 130.253C113.112 124.026 109.177 101.523 104.761 99.0318Z" fill="#163560"/>
<path d="M104.79 131.329C104.818 131.357 100.912 133.367 97.9961 132.574C95.2221 131.81 93.4388 128.244 93.4671 128.215C94.6277 127.989 94.9674 126.375 94.9391 119.469L95.4769 119.582L104.365 121.337C104.365 121.337 104.167 124.139 104.167 126.772C104.167 128.98 104.308 131.074 104.79 131.329Z" fill="#FFB27D"/>
<path d="M94.7412 101.919C94.7412 101.919 99.1287 97.2486 104.648 101.693C104.648 101.693 101.421 101.127 94.7412 101.919Z" fill="#E37970"/>
<path d="M104.365 121.337C104.365 121.337 104.167 124.139 104.167 126.772C99.1852 126.63 96.5527 122.101 95.4771 119.582L104.365 121.337Z" fill="#D68D5D"/>
<path d="M94.5425 118.592C94.5425 118.592 91.9383 114.459 91.3156 110.949C90.8627 108.43 92.1364 99.0886 101.534 100.447C101.534 100.447 104.251 100.702 106.827 102.457C108.865 103.844 111.809 106.788 108.526 114.94L107.677 117.686L94.5425 118.592Z" fill="#131F2D"/>
<path d="M139.833 282.625L135.105 282.767L130.01 282.937C130.01 282.937 118.207 269.803 111.611 248.743C111.47 248.262 111.3 247.752 111.13 247.271C107.507 236.713 100.006 223.466 96.043 211.464C95.4203 209.567 94.8542 207.756 94.3446 206.057C94.1748 205.519 94.0333 204.982 93.8635 204.444C90.9479 194.31 90.0987 187.658 89.3345 180.553L114.584 180.752C114.584 180.752 122.509 229.297 139.833 282.625Z" fill="#80BDCC"/>
<path d="M113.904 164.363C114.244 177.95 115.885 183.781 115.885 183.781C115.885 183.781 103.657 190.008 89.1078 185.422C88.938 185.366 90.0419 129.263 94.1746 127.734C95.1087 128.923 97.9393 130.056 100.459 129.999C103.346 129.942 104.28 128.697 104.138 127.338C107.252 129.065 113.423 144.916 113.904 164.363Z" fill="#E7F1FD"/>
<path d="M106.036 123.828C106.036 123.828 94.2603 124.026 94.232 116.695C94.232 109.364 92.7034 104.438 100.233 104.014C107.762 103.589 109.234 106.391 109.829 108.826C110.423 111.26 109.093 123.602 106.036 123.828Z" fill="#FFB27D"/>
<path d="M109.46 104.721C107.649 102.514 106.262 102.995 105.497 103.646C102.95 99.8527 94.9108 105.344 94.9108 105.344C90.9479 109.109 90.3252 113.638 90.3252 113.638C90.3252 113.638 92.4765 114.968 97.43 113.694C101.336 112.704 104.167 107.156 105.186 104.835C105.894 105.457 107.366 106.901 107.818 108.316C108.413 110.184 108.668 114.034 109.8 113.893C109.772 113.893 112.206 108.033 109.46 104.721Z" fill="#163560"/>
<path d="M153.448 136C153.448 136 155.118 130.027 161.685 130.848C162.449 131.074 164.657 131.952 163.242 134.33C162.194 136.085 161.741 135.179 160.128 137.5C158.486 139.849 156.731 140.359 154.693 140.076L153.448 136Z" fill="#FFB27D"/>
<path d="M97.2034 296.75C96.8071 294.542 96.0428 290.721 96.0428 290.721L96.2127 277.191H88.0039L91.0892 290.155C91.1459 290.749 91.3157 293.099 90.4665 295.561C90.4665 295.561 89.6739 299.156 93.2122 299.213C96.7505 299.298 97.5997 298.958 97.2034 296.75Z" fill="#FFB27D"/>
<path d="M90.4387 295.561C90.4387 295.561 89.7311 299.354 90.1274 301.166C90.1274 301.166 91.1747 301.166 93.7506 301.166C96.1849 301.166 97.5719 301.166 97.5719 301.166C97.5719 301.166 97.6002 297.033 96.9492 295.477C96.9775 295.477 94.4582 299.241 90.4387 295.561Z" fill="#131F2D"/>
<path d="M149.91 297.146C149.882 297.146 149.853 297.118 149.825 297.118C148.098 297.175 146.343 296.524 144.758 294.74C139.946 289.306 137.229 288.711 136.266 288.711C135.445 290.381 134.54 292.278 135.7 294.401L137.427 301.166H139.295L139.323 294.769C140.54 295.08 141.758 295.674 142.267 296.75C143.569 299.354 144.475 301.166 145.692 301.166C146.372 301.166 154.071 301.166 154.071 301.166C154.071 301.166 153.929 298.958 149.91 297.146Z" fill="#131F2D"/>
<path d="M153.448 136C153.448 136 145.72 140.331 142.946 141.576C141.361 142.284 137.738 143.982 135.191 145.171C133.577 145.935 131.624 145.511 130.463 144.152C126.274 139.255 115.405 128.64 104.195 127.338L104.224 127.366L104.167 127.338C104.167 127.338 110.989 144.18 111.187 147.577C111.385 150.974 111.979 203.312 111.979 203.312C111.979 203.312 111.583 205.718 116.197 204.727C120.811 203.736 122 202.717 122 202.717C122 202.717 117.584 170.448 118.801 159.211C119.028 157.003 118.83 154.512 118.32 151.936C125.142 156.097 133.237 157.937 133.237 157.937C133.237 157.937 139.267 155.305 147.532 149.247C150.136 147.351 154.693 140.104 154.693 140.104L153.448 136Z" fill="#E37970"/>
<path d="M135.134 282.767L130.039 282.937C130.039 282.937 118.235 269.803 111.64 248.743C111.498 248.262 111.328 247.752 111.158 247.271C107.535 236.713 100.034 223.466 96.0712 211.464C95.4485 209.567 94.8823 207.756 94.3728 206.057C94.203 205.52 94.0614 204.982 93.8916 204.444L98.1092 201.245C98.1092 201.245 110.734 221.682 114.64 240.931C118.008 257.659 131.595 277.757 135.134 282.767Z" fill="#5F9AA8"/>
<path d="M98.5056 242.714C98.5905 252.083 98.1093 273.596 96.8921 282.484H92.3631C89.8722 282.484 88.6267 282.456 88.6267 282.456C85.5697 266.972 83.3901 254.15 81.8049 243.11C80.5029 234.052 79.3423 226.268 78.4648 219.588C77.559 212.851 76.9363 207.218 76.7381 202.462C76.7098 201.727 76.6815 200.991 76.6532 200.283C76.6532 199.575 76.6249 198.868 76.6532 198.217L101.336 195.811C100.997 212.2 98.4773 237.279 98.5056 242.714Z" fill="#80BDCC"/>
<path d="M92.3633 282.512C89.8723 282.512 88.6269 282.484 88.6269 282.484C85.5698 267 83.3902 254.178 81.8051 243.138C80.503 234.08 79.3424 226.296 78.4649 219.616C77.5592 212.879 76.9364 207.246 76.7383 202.491L85.7962 207.812C85.7962 207.812 80.0218 209.85 82.2297 225.277C84.4093 240.732 89.3062 280.333 92.3633 282.512Z" fill="#5F9AA8"/>
<path d="M93.524 202.321C93.524 202.321 91.7973 208.605 85.7681 207.812C79.7672 207.02 71.1904 203.396 71.1904 203.396C71.1904 203.396 73.7663 195.273 76.9649 184.601C80.8428 171.694 85.6266 155.021 87.8911 144.52C88.5138 141.576 88.9667 139.113 89.1082 137.358L94.175 127.706C94.175 127.706 101.535 144.35 101.931 148.567C102.355 152.813 93.524 202.321 93.524 202.321Z" fill="#E37970"/>
<path d="M93.2692 157.427C93.0144 164.249 91.401 177.468 77.1064 184.545C77.0781 184.573 77.0215 184.573 76.9932 184.601C80.8711 171.694 85.6548 155.021 87.9193 144.52C90.5235 148.454 93.4107 153.663 93.2692 157.427Z" fill="#C45446"/>
<path d="M119.141 153.691C119.141 154.512 116.764 160.201 112.631 163.598C111.838 164.249 111.187 164.589 110.678 164.674C103.913 166.995 98.0533 168.184 93.2979 168.778V161.22C99.1855 160.852 106.432 160.456 109.404 160.286C109.885 159.494 110.48 158.39 110.678 157.286C111.046 155.219 112.15 153.663 115.037 153.295C117.896 152.927 119.141 152.87 119.141 153.691Z" fill="#FFB27D"/>
<path d="M94.1746 127.734C94.1746 127.734 81.8898 128.555 78.9459 135.094C76.0021 141.633 75.068 163.428 78.8044 169.854C78.8044 169.854 83.9561 171.326 93.0707 169.627C93.1839 169.599 93.2971 169.599 93.4104 169.571C93.4104 169.571 96.3259 162.466 93.7217 161.051C93.7217 161.051 86.0507 161.447 86.8433 158.899C87.6642 156.352 94.1746 127.734 94.1746 127.734Z" fill="#E37970"/>
<path d="M340.391 202.397L333.848 202.32C333.771 202.294 333.694 202.294 333.617 202.294C333.54 202.294 333.463 202.294 333.412 202.32C332.565 202.576 331.872 204.449 331.872 206.707C331.872 206.836 331.872 206.938 331.872 207.067C331.898 208.067 332.052 208.965 332.283 209.658C332.539 210.402 332.898 210.941 333.309 211.095H333.335C333.412 211.121 333.489 211.146 333.566 211.146C333.643 211.146 333.72 211.146 333.797 211.121L390.889 211.891L390.94 207.528L390.991 203.115L340.391 202.397Z" fill="#F4F4F4"/>
<path d="M365.306 210.685C353.272 211.685 346.01 206.322 340.391 202.397L333.848 202.32C333.771 202.294 333.694 202.294 333.617 202.294C333.54 202.294 333.463 202.294 333.412 202.32C332.565 202.576 331.872 204.449 331.872 206.707C331.872 206.836 331.872 206.938 331.872 207.067C331.898 208.067 332.052 208.965 332.283 209.658C332.719 210.454 333.104 210.992 333.309 211.095H333.335C333.412 211.121 333.489 211.146 333.566 211.146C333.643 211.146 333.72 211.146 333.797 211.121L390.889 211.891L390.94 207.528C390.093 207.708 384.448 209.094 365.306 210.685Z" fill="#D5D6DA"/>
<path d="M391.093 203.012C390.144 203.012 389.349 204.988 389.323 207.426C389.297 209.863 390.067 211.865 391.016 211.865C391.966 211.865 392.761 209.889 392.787 207.452C392.813 205.014 392.043 203.038 391.093 203.012Z" fill="#D5D6DA"/>
<path d="M96.9484 95.4369C94.514 96.0313 92.7024 97.022 91.3437 98.1826C91.2022 98.2958 91.089 98.409 90.9474 98.5506C85.9373 103.334 87.9187 110.949 87.9187 110.949C87.9187 110.949 88.598 112.873 89.0509 113.609C89.5038 114.345 96.1841 113.496 96.5238 112.053C96.8634 110.609 98.1938 109.137 98.1938 109.137C98.1938 109.137 105.214 108.656 105.695 108.628C107.28 108.514 111.809 106.929 111.809 106.929C111.781 106.476 109.233 92.3515 96.9484 95.4369Z" fill="#00A3FE"/>
<path d="M115.97 105.429C115.121 105.231 113.678 105.004 111.328 104.919C111.328 104.919 106.743 106.703 102.808 107.948C100.94 105.599 98.2507 99.8244 91.3723 98.1826C91.344 98.1826 91.344 98.1826 91.3157 98.1543C91.1742 98.3524 91.0892 98.409 90.976 98.5223C90.9477 98.5506 90.9194 98.6072 90.8628 98.6638C96.4674 99.6545 99.4395 106.137 101.279 108.514C99.7226 108.911 100.26 108.996 98.2224 109.137C98.2224 109.137 110.507 109.364 116.112 106.42C116.536 106.193 116.452 105.542 115.97 105.429Z" fill="#016EB9"/>
<path d="M294.227 123.291C298.554 115.079 310.159 116.069 310.159 116.069C298.325 113.1 292.42 122.863 292.42 122.863L291.911 122.676L289.213 123.425L313.213 128.507L294.227 123.291Z" fill="#016EB9"/>
<path d="M270.213 214.507H266.213V301.507H270.213V214.507Z" fill="#BB5B2C"/>
<path d="M437.213 214.507H433.213V301.507H437.213V214.507Z" fill="#BB5B2C"/>
<path d="M450.213 215.507V210.507L252.213 210.507V215.507L450.213 215.507Z" fill="#BB5B2C"/>
<path d="M270.213 215.507H266.213V218.507H270.213V215.507Z" fill="white"/>
<path d="M437.213 215.507H433.213V218.507H437.213V215.507Z" fill="white"/>
<path d="M444.928 202.859C444.928 202.859 444.312 202.012 443.209 201.088C443.029 200.934 442.849 200.78 442.644 200.626C440.617 199.061 437.384 197.547 433.458 199.164C432.406 199.6 431.508 200.19 430.764 200.883C430.584 201.037 430.43 201.216 430.276 201.396C426.863 205.142 427.12 211.044 427.12 211.044L446.698 210.941C446.826 205.45 444.928 202.859 444.928 202.859Z" fill="#00A3FE"/>
<path d="M441.233 210.967C441.181 210.146 440.848 203.372 443.234 201.088C443.054 200.934 443.106 200.96 442.9 200.806C440.36 203.449 440.155 210.094 440.155 210.967L433.894 210.992C433.74 206.194 431.123 201.396 430.789 200.883C430.61 201.037 430.584 201.088 430.43 201.242C430.892 202.063 432.585 206.682 432.739 210.992L427.146 211.018C427.146 211.018 432.354 212.404 436.28 212.378C440.206 212.352 446.724 210.915 446.724 210.915L441.233 210.967Z" fill="#016EB9"/>
<path d="M379.189 202.268V206.681V211.044L322.071 211.069C321.994 211.095 321.917 211.121 321.84 211.121C321.763 211.121 321.686 211.095 321.609 211.095C320.814 210.838 320.172 209.145 320.095 207.066C320.095 206.964 320.095 206.835 320.095 206.707C320.095 204.449 320.737 202.576 321.583 202.319C321.66 202.294 321.712 202.294 321.789 202.294C321.866 202.294 321.943 202.294 322.02 202.319L379.189 202.268Z" fill="#F4F4F4"/>
<path d="M379.189 206.656V211.018L322.071 211.043C321.994 211.069 321.917 211.095 321.84 211.095C321.763 211.095 321.686 211.069 321.609 211.069C320.814 210.813 320.172 209.119 320.095 207.041C322.712 207.99 337.467 211.377 353.067 207.066C371.619 201.934 378.368 206.912 379.189 206.656Z" fill="#D5D6DA"/>
<path d="M379.291 202.217C378.342 202.217 377.572 204.218 377.598 206.656C377.623 209.093 378.393 211.069 379.343 211.069C380.292 211.069 381.062 209.068 381.036 206.63C381.036 204.167 380.241 202.191 379.291 202.217Z" fill="#D5D6DA"/>
<path d="M311.062 144.483C311.062 144.483 325.047 158.904 325.714 164.344C326.381 169.784 319.068 178.302 319.068 178.302L311.062 144.483Z" fill="#E58638"/>
<path d="M305.084 294.103C305.084 294.103 304.597 301.775 303.134 301.878C302.929 301.903 295.616 301.903 295.616 301.903L286.25 301.852C286.25 301.852 286.302 299.594 289.047 299.132C291.793 298.645 296.36 296.746 298.002 293.128C299.773 289.305 305.084 294.103 305.084 294.103Z" fill="#131F2D"/>
<path d="M325.92 294.103C325.92 294.103 325.432 301.775 323.97 301.878C323.764 301.903 316.451 301.903 316.451 301.903L307.06 301.878C307.06 301.878 307.137 299.594 309.883 299.132C312.628 298.645 317.196 296.746 318.838 293.128C320.583 289.305 325.92 294.103 325.92 294.103Z" fill="#131F2D"/>
<path d="M294.744 211.865C294.744 211.865 297.181 227.517 306.316 255.28C315.451 283.044 316.682 295.078 316.682 295.078C316.682 295.078 319.146 295.437 321.763 295.437C323.405 295.437 326.484 294.796 326.484 294.796C326.484 294.796 326.561 264.441 322.353 250.482C318.145 236.523 321.455 200.138 321.455 200.138L294.744 211.865Z" fill="#163560"/>
<path d="M289.971 201.011C289.971 201.011 289.612 224.592 293.692 253.536C297.771 282.479 296.386 294.77 296.386 294.77C296.386 294.77 299.747 295.36 300.927 295.412C302.185 295.463 306.162 295.104 306.162 295.104C306.162 295.104 312.012 266.134 310.319 251.663C308.651 237.165 318.325 201.935 318.325 201.935L289.971 201.011Z" fill="#1C468A"/>
<path d="M308.882 145.843L304.263 149.256L297.592 147.845C297.694 147.229 298.131 144.714 298.515 142.431C298.541 142.302 298.567 142.174 298.592 142.02C298.926 140.07 299.234 138.402 299.234 138.402L305.444 135.297L307.753 134.143C307.753 134.194 307.573 136.298 307.548 136.606C307.163 142.123 308.882 145.843 308.882 145.843Z" fill="#FFB27D"/>
<path d="M298.079 144.124C298.233 144.073 307.137 141.43 308.112 141.763C309.087 142.071 309.652 143.945 309.652 143.945L295.077 147.229C295.077 147.229 296.232 144.894 298.079 144.124Z" fill="#E58638"/>
<path d="M322.071 203.91C320.557 210.813 295.411 211.608 288.945 205.373C288.2 204.655 288.175 201.345 288.457 196.88C288.996 188.13 290.741 174.992 290.818 168.27C290.843 165.037 291.305 161.701 291.895 158.699C293.153 152.284 295.077 147.229 295.077 147.229C295.077 147.229 307.368 143.252 309.652 143.945C320.711 147.203 323.585 197.034 322.071 203.91Z" fill="#EE9849"/>
<path d="M288.457 196.88C288.995 188.13 290.74 174.992 290.817 168.27C290.843 165.037 291.305 161.701 291.895 158.699L299.285 157.39C299.259 157.39 306.495 186.898 288.457 196.88Z" fill="#E58638"/>
<path d="M292.46 184.691C292.46 184.691 292.973 185.897 291.895 186.693C290.843 187.488 290.15 188.823 290.381 189.772C290.612 190.721 292.947 192.287 293.743 192.03C294.538 191.773 296.18 190.516 296.001 190.003C295.821 189.49 297.104 185.564 295.128 184.076C293.204 182.562 292.46 184.691 292.46 184.691Z" fill="#FFB27D"/>
<path d="M300.722 145.458C300.722 145.458 293.512 146.818 287.764 155.26C282.016 163.728 278.245 170.014 279.297 173.068C280.349 176.121 289.997 186.693 291.664 186.693C293.332 186.693 296.001 185.487 296.155 182.767C296.155 182.767 289.381 172.606 290.715 171.066C291.279 170.425 299.516 163.728 300.696 166.756C302.647 171.759 300.722 145.458 300.722 145.458Z" fill="#EE9849"/>
<path d="M307.137 136.734C305.777 139.352 300.671 141.61 298.567 142.431C298.593 142.302 298.618 142.174 298.644 142.02C298.977 140.07 299.285 138.402 299.285 138.402L305.495 135.297C306.855 135.323 307.702 135.657 307.137 136.734Z" fill="#F4924E"/>
<path d="M297.283 139.095C297.283 139.095 308.266 140.352 308.958 133.501C309.651 126.65 311.524 122.185 304.519 121.108C297.54 120.004 295.898 122.493 295.128 124.726C294.332 126.932 294.435 138.582 297.283 139.095Z" fill="#FFB27D"/>
<path d="M295.411 124.007C295.411 124.007 297.515 131.423 299.003 130.807C300.491 130.191 301.877 129.678 302.082 131.987C302.288 134.297 300.62 137.35 305.521 136.837C310.422 136.324 314.963 122.596 313.193 120.492C308.087 114.436 288.329 116.797 295.411 124.007Z" fill="#131F2D"/>
<path d="M313.578 128.395L289.381 123.52L292.101 122.801C292.101 122.801 294.59 112.563 306.829 115.001C317.016 117.028 313.578 128.395 313.578 128.395Z" fill="#00A3FE"/>
</svg>
